<?xml version="1.0" standalone="no"?>
<!DOCTYPE svg PUBLIC "-//W3C//DTD SVG 20010904//EN"
 "http://www.w3.org/TR/2001/REC-SVG-20010904/DTD/svg10.dtd">
<svg version="1.0" xmlns="http://www.w3.org/2000/svg"
 width="700.000000pt" height="700.000000pt" viewBox="0 0 700.000000 700.000000"
 preserveAspectRatio="xMidYMid meet">
<metadata>
Created by potrace 1.14, written by Peter Selinger 2001-2017
</metadata>
<g transform="translate(0.000000,700.000000) scale(0.100000,-0.100000)"
fill="#000000" stroke="none">
<path d="M3240 6989 c-1192 -90 -2244 -773 -2822 -1831 -134 -247 -265 -593
-328 -873 -179 -793 -83 -1617 274 -2335 179 -360 373 -629 665 -921 402 -401
846 -676 1371 -849 933 -308 1950 -212 2800 262 292 163 525 341 771 587 290
291 484 559 661 913 187 377 299 760 350 1203 7 61 12 220 12 355 0 249 -9
371 -45 585 -99 590 -341 1127 -728 1615 -97 123 -399 425 -521 522 -710 564
-1577 834 -2460 767z m1478 -1589 c1444 -468 1296 -419 1290 -425 -3 -3 -580
-192 -1282 -419 l-1277 -414 -1284 416 c-707 229 -1283 418 -1281 420 5 4
2547 830 2559 831 5 1 579 -184 1275 -409z m-2281 -1278 l1011 -328 1013 328
1014 328 325 -2 325 -3 0 -350 0 -350 -2625 0 -2625 0 -3 340 c-1 187 0 346 3
352 3 10 67 13 277 13 l273 0 1012 -328z m-856 -842 c12 -215 56 -408 139
-612 362 -891 1338 -1378 2270 -1132 804 212 1383 918 1429 1744 l6 115 344 3
c190 1 348 -1 353 -6 10 -10 -8 -281 -28 -402 -89 -566 -355 -1077 -770 -1481
-940 -912 -2395 -989 -3444 -181 -127 99 -373 349 -476 487 -259 347 -421 722
-494 1147 -19 117 -43 415 -34 430 3 4 161 7 352 6 l347 -3 6 -115z m3141 40
c-8 -184 -77 -404 -180 -570 -68 -110 -208 -262 -313 -340 -369 -274 -864
-317 -1278 -110 -312 156 -552 452 -636 783 -25 101 -50 291 -40 307 4 7 428
9 1228 8 l1222 -3 -3 -75z"/>
</g>
</svg>
