<svg width="484" height="144" viewBox="0 0 484 144" fill="none" xmlns="http://www.w3.org/2000/svg">
<path fill-rule="evenodd" clip-rule="evenodd" d="M18 41.6273L70.92 24.48L123.84 41.6273L70.92 58.7746L18 41.6273ZM112.32 52.56L70.92 65.9745L29.52 52.56H18V66.96H126V52.56H112.32ZM72 128.16C42.1766 128.16 18 103.983 18 74.16H32.4C32.4 96.0305 50.1295 113.76 72 113.76C93.8705 113.76 111.6 96.0305 111.6 74.16L126 74.16C126 103.983 101.823 128.16 72 128.16ZM72 99.36C58.0824 99.36 46.8 88.0776 46.8 74.16L97.2 74.16C97.2 88.0776 85.9176 99.36 72 99.36Z" fill="#F2F2F2"/>
<path d="M97.1998 74.16C97.1998 88.0776 85.9174 99.36 71.9998 99.36C58.0822 99.36 46.7998 88.0776 46.7998 74.16C61.9198 74.16 58.0822 74.16 71.9998 74.16C85.9174 74.16 82.4398 74.16 97.1998 74.16Z" fill="#BF8FFA"/>
<path d="M198.698 64H171.536V26.2H179.852V56.44H198.698V64ZM229 64H221.062V60.868C220.054 61.984 218.848 62.884 217.444 63.568C216.04 64.216 214.33 64.54 212.314 64.54C210.946 64.54 209.65 64.36 208.426 64C207.238 63.604 206.194 63.028 205.294 62.272C204.394 61.516 203.674 60.598 203.134 59.518C202.63 58.402 202.378 57.124 202.378 55.684V55.576C202.378 53.992 202.666 52.624 203.242 51.472C203.818 50.32 204.61 49.366 205.618 48.61C206.662 47.854 207.886 47.296 209.29 46.936C210.73 46.54 212.314 46.342 214.042 46.342C215.518 46.342 216.796 46.45 217.876 46.666C218.992 46.882 220.072 47.17 221.116 47.53V47.044C221.116 45.316 220.594 44.002 219.55 43.102C218.506 42.202 216.958 41.752 214.906 41.752C213.322 41.752 211.918 41.896 210.694 42.184C209.506 42.436 208.246 42.814 206.914 43.318L204.862 37.054C206.446 36.37 208.102 35.812 209.83 35.38C211.558 34.948 213.646 34.732 216.094 34.732C220.594 34.732 223.87 35.83 225.922 38.026C227.974 40.222 229 43.282 229 47.206V64ZM221.224 53.794V52.336C220.504 52.012 219.694 51.76 218.794 51.58C217.93 51.364 216.994 51.256 215.986 51.256C214.222 51.256 212.836 51.598 211.828 52.282C210.82 52.966 210.316 53.956 210.316 55.252V55.36C210.316 56.476 210.73 57.34 211.558 57.952C212.386 58.564 213.466 58.87 214.798 58.87C216.742 58.87 218.29 58.402 219.442 57.466C220.63 56.53 221.224 55.306 221.224 53.794ZM280.44 52.822C280.44 54.694 280.098 56.368 279.414 57.844C278.73 59.284 277.776 60.508 276.552 61.516C275.328 62.488 273.87 63.244 272.178 63.784C270.486 64.288 268.614 64.54 266.562 64.54C263.682 64.54 260.856 64.054 258.084 63.082C255.312 62.074 252.792 60.544 250.524 58.492L255.438 52.606C257.166 54.01 258.93 55.126 260.73 55.954C262.566 56.782 264.564 57.196 266.724 57.196C268.452 57.196 269.784 56.89 270.72 56.278C271.692 55.63 272.178 54.748 272.178 53.632V53.524C272.178 52.984 272.07 52.516 271.854 52.12C271.674 51.688 271.296 51.292 270.72 50.932C270.18 50.572 269.406 50.212 268.398 49.852C267.426 49.492 266.148 49.114 264.564 48.718C262.656 48.25 260.928 47.728 259.38 47.152C257.832 46.576 256.518 45.874 255.438 45.046C254.358 44.182 253.512 43.12 252.9 41.86C252.324 40.6 252.036 39.034 252.036 37.162V37.054C252.036 35.326 252.36 33.778 253.008 32.41C253.656 31.006 254.556 29.8 255.708 28.792C256.896 27.784 258.3 27.01 259.92 26.47C261.54 25.93 263.322 25.66 265.266 25.66C268.038 25.66 270.576 26.074 272.88 26.902C275.22 27.73 277.362 28.918 279.306 30.466L274.986 36.73C273.294 35.578 271.638 34.678 270.018 34.03C268.398 33.346 266.778 33.004 265.158 33.004C263.538 33.004 262.314 33.328 261.486 33.976C260.694 34.588 260.298 35.362 260.298 36.298V36.406C260.298 37.018 260.406 37.558 260.622 38.026C260.874 38.458 261.306 38.854 261.918 39.214C262.53 39.574 263.358 39.916 264.402 40.24C265.482 40.564 266.832 40.942 268.452 41.374C270.36 41.878 272.052 42.454 273.528 43.102C275.04 43.714 276.3 44.47 277.308 45.37C278.352 46.234 279.126 47.26 279.63 48.448C280.17 49.636 280.44 51.058 280.44 52.714V52.822ZM311.687 64H303.749V60.868C302.741 61.984 301.535 62.884 300.131 63.568C298.727 64.216 297.017 64.54 295.001 64.54C293.633 64.54 292.337 64.36 291.113 64C289.925 63.604 288.881 63.028 287.981 62.272C287.081 61.516 286.361 60.598 285.821 59.518C285.317 58.402 285.065 57.124 285.065 55.684V55.576C285.065 53.992 285.353 52.624 285.929 51.472C286.505 50.32 287.297 49.366 288.305 48.61C289.349 47.854 290.573 47.296 291.977 46.936C293.417 46.54 295.001 46.342 296.729 46.342C298.205 46.342 299.483 46.45 300.563 46.666C301.679 46.882 302.759 47.17 303.803 47.53V47.044C303.803 45.316 303.281 44.002 302.237 43.102C301.193 42.202 299.645 41.752 297.593 41.752C296.009 41.752 294.605 41.896 293.381 42.184C292.193 42.436 290.933 42.814 289.601 43.318L287.549 37.054C289.133 36.37 290.789 35.812 292.517 35.38C294.245 34.948 296.333 34.732 298.781 34.732C303.281 34.732 306.557 35.83 308.609 38.026C310.661 40.222 311.687 43.282 311.687 47.206V64ZM303.911 53.794V52.336C303.191 52.012 302.381 51.76 301.481 51.58C300.617 51.364 299.681 51.256 298.673 51.256C296.909 51.256 295.523 51.598 294.515 52.282C293.507 52.966 293.003 53.956 293.003 55.252V55.36C293.003 56.476 293.417 57.34 294.245 57.952C295.073 58.564 296.153 58.87 297.485 58.87C299.429 58.87 300.977 58.402 302.129 57.466C303.317 56.53 303.911 55.306 303.911 53.794ZM327.336 64H319.128V24.58H327.336V64ZM343.847 31.87H335.207V24.58H343.847V31.87ZM343.631 64H335.423V35.056H343.631V64ZM377.854 64H369.646V47.854C369.646 45.91 369.214 44.452 368.35 43.48C367.486 42.472 366.262 41.968 364.678 41.968C363.094 41.968 361.834 42.472 360.898 43.48C359.998 44.452 359.548 45.91 359.548 47.854V64H351.34V35.056H359.548V39.16C360.016 38.548 360.52 37.972 361.06 37.432C361.636 36.856 362.266 36.352 362.95 35.92C363.634 35.488 364.39 35.146 365.218 34.894C366.046 34.642 366.982 34.516 368.026 34.516C371.158 34.516 373.57 35.47 375.262 37.378C376.99 39.286 377.854 41.914 377.854 45.262V64ZM411.985 50.338C411.985 50.734 411.967 51.076 411.931 51.364C411.931 51.652 411.913 51.994 411.877 52.39H391.735C392.131 54.262 392.941 55.684 394.165 56.656C395.425 57.592 396.973 58.06 398.809 58.06C400.177 58.06 401.401 57.826 402.481 57.358C403.561 56.89 404.677 56.134 405.829 55.09L410.527 59.248C409.159 60.94 407.503 62.272 405.559 63.244C403.615 64.18 401.329 64.648 398.701 64.648C396.541 64.648 394.525 64.288 392.653 63.568C390.817 62.848 389.215 61.822 387.847 60.49C386.515 59.158 385.471 57.592 384.715 55.792C383.959 53.956 383.581 51.922 383.581 49.69V49.582C383.581 47.53 383.923 45.586 384.607 43.75C385.327 41.914 386.317 40.312 387.577 38.944C388.837 37.576 390.331 36.496 392.059 35.704C393.823 34.912 395.767 34.516 397.891 34.516C400.303 34.516 402.391 34.948 404.155 35.812C405.919 36.676 407.377 37.846 408.529 39.322C409.717 40.762 410.581 42.436 411.121 44.344C411.697 46.216 411.985 48.178 411.985 50.23V50.338ZM403.993 47.26C403.741 45.424 403.093 43.948 402.049 42.832C401.005 41.68 399.619 41.104 397.891 41.104C396.163 41.104 394.759 41.662 393.679 42.778C392.635 43.894 391.951 45.388 391.627 47.26H403.993ZM217.556 127H206.93L202.706 116.638H183.17L178.946 127H168.584L188.384 80.47H197.756L217.556 127ZM199.076 107.662L192.938 92.68L186.8 107.662H199.076ZM254.783 121.324C253.067 123.216 251.109 124.778 248.909 126.01C246.709 127.198 243.849 127.792 240.329 127.792C237.689 127.792 235.225 127.308 232.937 126.34C230.693 125.372 228.757 124.074 227.129 122.446C225.501 120.774 224.225 118.838 223.301 116.638C222.377 114.394 221.915 112.018 221.915 109.51V109.378C221.915 106.87 222.377 104.494 223.301 102.25C224.225 100.006 225.501 98.048 227.129 96.376C228.757 94.704 230.693 93.384 232.937 92.416C235.225 91.448 237.733 90.964 240.461 90.964C243.805 90.964 246.577 91.492 248.777 92.548C250.977 93.604 252.913 95.056 254.585 96.904L248.447 103.504C247.303 102.316 246.115 101.37 244.883 100.666C243.695 99.962 242.199 99.61 240.395 99.61C239.119 99.61 237.953 99.874 236.897 100.402C235.885 100.886 234.983 101.568 234.191 102.448C233.443 103.328 232.849 104.362 232.409 105.55C232.013 106.694 231.815 107.926 231.815 109.246V109.378C231.815 110.742 232.013 112.018 232.409 113.206C232.849 114.394 233.465 115.428 234.257 116.308C235.049 117.188 235.995 117.892 237.095 118.42C238.195 118.904 239.427 119.146 240.791 119.146C242.463 119.146 243.915 118.816 245.147 118.156C246.423 117.452 247.677 116.528 248.909 115.384L254.783 121.324ZM291.762 127H282.06V123.172C280.828 124.536 279.354 125.636 277.638 126.472C275.922 127.264 273.832 127.66 271.368 127.66C269.696 127.66 268.112 127.44 266.616 127C265.164 126.516 263.888 125.812 262.788 124.888C261.688 123.964 260.808 122.842 260.148 121.522C259.532 120.158 259.224 118.596 259.224 116.836V116.704C259.224 114.768 259.576 113.096 260.28 111.688C260.984 110.28 261.952 109.114 263.184 108.19C264.46 107.266 265.956 106.584 267.672 106.144C269.432 105.66 271.368 105.418 273.48 105.418C275.284 105.418 276.846 105.55 278.166 105.814C279.53 106.078 280.85 106.43 282.126 106.87V106.276C282.126 104.164 281.488 102.558 280.212 101.458C278.936 100.358 277.044 99.808 274.536 99.808C272.6 99.808 270.884 99.984 269.388 100.336C267.936 100.644 266.396 101.106 264.768 101.722L262.26 94.066C264.196 93.23 266.22 92.548 268.332 92.02C270.444 91.492 272.996 91.228 275.988 91.228C281.488 91.228 285.492 92.57 288 95.254C290.508 97.938 291.762 101.678 291.762 106.474V127ZM282.258 114.526V112.744C281.378 112.348 280.388 112.04 279.288 111.82C278.232 111.556 277.088 111.424 275.856 111.424C273.7 111.424 272.006 111.842 270.774 112.678C269.542 113.514 268.926 114.724 268.926 116.308V116.44C268.926 117.804 269.432 118.86 270.444 119.608C271.456 120.356 272.776 120.73 274.404 120.73C276.78 120.73 278.672 120.158 280.08 119.014C281.532 117.87 282.258 116.374 282.258 114.526ZM335.968 127H325.936V121.918C324.704 123.59 323.208 124.976 321.448 126.076C319.732 127.132 317.554 127.66 314.914 127.66C312.846 127.66 310.844 127.264 308.908 126.472C306.972 125.68 305.256 124.514 303.76 122.974C302.264 121.39 301.054 119.476 300.13 117.232C299.25 114.944 298.81 112.326 298.81 109.378V109.246C298.81 106.298 299.25 103.702 300.13 101.458C301.054 99.17 302.242 97.256 303.694 95.716C305.19 94.132 306.906 92.944 308.842 92.152C310.778 91.36 312.802 90.964 314.914 90.964C317.598 90.964 319.798 91.492 321.514 92.548C323.274 93.604 324.748 94.836 325.936 96.244V78.82H335.968V127ZM326.068 109.378V109.246C326.068 107.794 325.826 106.474 325.342 105.286C324.902 104.054 324.286 103.02 323.494 102.184C322.746 101.304 321.844 100.644 320.788 100.204C319.776 99.72 318.676 99.478 317.488 99.478C316.3 99.478 315.178 99.72 314.122 100.204C313.11 100.644 312.208 101.304 311.416 102.184C310.624 103.02 309.986 104.032 309.502 105.22C309.062 106.408 308.842 107.75 308.842 109.246V109.378C308.842 110.83 309.062 112.172 309.502 113.404C309.986 114.592 310.624 115.626 311.416 116.506C312.208 117.342 313.11 118.002 314.122 118.486C315.178 118.926 316.3 119.146 317.488 119.146C318.676 119.146 319.776 118.926 320.788 118.486C321.844 118.002 322.746 117.342 323.494 116.506C324.286 115.626 324.902 114.592 325.342 113.404C325.826 112.172 326.068 110.83 326.068 109.378ZM377.931 110.302C377.931 110.786 377.909 111.204 377.865 111.556C377.865 111.908 377.843 112.326 377.799 112.81H353.181C353.665 115.098 354.655 116.836 356.151 118.024C357.691 119.168 359.583 119.74 361.827 119.74C363.499 119.74 364.995 119.454 366.315 118.882C367.635 118.31 368.999 117.386 370.407 116.11L376.149 121.192C374.477 123.26 372.453 124.888 370.077 126.076C367.701 127.22 364.907 127.792 361.695 127.792C359.055 127.792 356.591 127.352 354.303 126.472C352.059 125.592 350.101 124.338 348.429 122.71C346.801 121.082 345.525 119.168 344.601 116.968C343.677 114.724 343.215 112.238 343.215 109.51V109.378C343.215 106.87 343.633 104.494 344.469 102.25C345.349 100.006 346.559 98.048 348.099 96.376C349.639 94.704 351.465 93.384 353.577 92.416C355.733 91.448 358.109 90.964 360.705 90.964C363.653 90.964 366.205 91.492 368.361 92.548C370.517 93.604 372.299 95.034 373.707 96.838C375.159 98.598 376.215 100.644 376.875 102.976C377.579 105.264 377.931 107.662 377.931 110.17V110.302ZM368.163 106.54C367.855 104.296 367.063 102.492 365.787 101.128C364.511 99.72 362.817 99.016 360.705 99.016C358.593 99.016 356.877 99.698 355.557 101.062C354.281 102.426 353.445 104.252 353.049 106.54H368.163ZM439.396 127H429.364V107.266C429.364 104.89 428.858 103.108 427.846 101.92C426.834 100.688 425.382 100.072 423.49 100.072C421.598 100.072 420.102 100.688 419.002 101.92C417.946 103.108 417.418 104.89 417.418 107.266V127H407.386V107.266C407.386 104.89 406.88 103.108 405.868 101.92C404.856 100.688 403.404 100.072 401.512 100.072C399.62 100.072 398.124 100.688 397.024 101.92C395.968 103.108 395.44 104.89 395.44 107.266V127H385.408V91.624H395.44V96.64C396.012 95.892 396.628 95.188 397.288 94.528C397.992 93.824 398.762 93.208 399.598 92.68C400.434 92.152 401.358 91.734 402.37 91.426C403.426 91.118 404.592 90.964 405.868 90.964C408.2 90.964 410.202 91.448 411.874 92.416C413.59 93.384 414.91 94.77 415.834 96.574C417.374 94.726 419.09 93.34 420.982 92.416C422.874 91.448 425.03 90.964 427.45 90.964C431.19 90.964 434.116 92.064 436.228 94.264C438.34 96.464 439.396 99.698 439.396 103.966V127ZM481.781 91.624L468.185 127.858C467.525 129.662 466.821 131.18 466.073 132.412C465.325 133.688 464.489 134.722 463.565 135.514C462.685 136.306 461.673 136.878 460.529 137.23C459.385 137.582 458.065 137.758 456.569 137.758C454.721 137.758 453.093 137.538 451.685 137.098C450.277 136.658 448.935 136.064 447.659 135.316L451.025 128.056C451.685 128.452 452.389 128.782 453.137 129.046C453.929 129.31 454.655 129.442 455.315 129.442C456.195 129.442 456.877 129.266 457.361 128.914C457.889 128.606 458.373 128.012 458.813 127.132L444.953 91.624H455.579L463.631 115.714L471.353 91.624H481.781Z" fill="#F2F2F2"/>
</svg>
